<mxfile host="65bd71144e">
    <diagram name="Page-1" id="9ZyNLu4KVZeICOAlVCgH">
        <mxGraphModel dx="1130" dy="1862" grid="1" gridSize="10" guides="1" tooltips="1" connect="1" arrows="1" fold="1" page="1" pageScale="1" pageWidth="850" pageHeight="1100" math="0" shadow="0">
            <root>
                <mxCell id="0"/>
                <mxCell id="1" parent="0"/>
                <mxCell id="m1c0zaDM8MKZKs5XDYi0-1" value="Cafetería Virtual" style="shape=umlFrame;whiteSpace=wrap;html=1;pointerEvents=0;" parent="1" vertex="1">
                    <mxGeometry x="80" y="-70" width="1140" height="710" as="geometry"/>
                </mxCell>
                <mxCell id="m1c0zaDM8MKZKs5XDYi0-3" value="Load Balancer" style="verticalAlign=top;align=left;spacingTop=8;spacingLeft=2;spacingRight=12;shape=cube;size=10;direction=south;fontStyle=4;html=1;whiteSpace=wrap;" parent="1" vertex="1">
                    <mxGeometry x="410" y="250" width="90" height="90" as="geometry"/>
                </mxCell>
                <mxCell id="m1c0zaDM8MKZKs5XDYi0-8" value="" style="group" parent="1" vertex="1" connectable="0">
                    <mxGeometry x="100" y="210" width="190" height="120" as="geometry"/>
                </mxCell>
                <mxCell id="m1c0zaDM8MKZKs5XDYi0-2" value="Cliente" style="verticalAlign=top;align=left;spacingTop=8;spacingLeft=2;spacingRight=12;shape=cube;size=10;direction=south;fontStyle=4;html=1;whiteSpace=wrap;" parent="m1c0zaDM8MKZKs5XDYi0-8" vertex="1">
                    <mxGeometry width="190" height="120" as="geometry"/>
                </mxCell>
                <mxCell id="m1c0zaDM8MKZKs5XDYi0-6" value="«front-end»&lt;br&gt;&lt;b&gt;mobile_app&lt;/b&gt;" style="html=1;dropTarget=0;whiteSpace=wrap;" parent="m1c0zaDM8MKZKs5XDYi0-8" vertex="1">
                    <mxGeometry x="30" y="40" width="120" height="60" as="geometry"/>
                </mxCell>
                <mxCell id="m1c0zaDM8MKZKs5XDYi0-7" value="" style="shape=module;jettyWidth=8;jettyHeight=4;" parent="m1c0zaDM8MKZKs5XDYi0-6" vertex="1">
                    <mxGeometry x="1" width="20" height="20" relative="1" as="geometry">
                        <mxPoint x="-27" y="7" as="offset"/>
                    </mxGeometry>
                </mxCell>
                <mxCell id="m1c0zaDM8MKZKs5XDYi0-9" value="" style="edgeStyle=orthogonalEdgeStyle;rounded=0;orthogonalLoop=1;jettySize=auto;html=1;endArrow=none;endFill=0;exitX=0.575;exitY=0.005;exitDx=0;exitDy=0;exitPerimeter=0;entryX=0.329;entryY=1.007;entryDx=0;entryDy=0;entryPerimeter=0;" parent="1" source="m1c0zaDM8MKZKs5XDYi0-2" target="m1c0zaDM8MKZKs5XDYi0-3" edge="1">
                    <mxGeometry relative="1" as="geometry">
                        <mxPoint x="300" y="270" as="sourcePoint"/>
                        <mxPoint x="400" y="270" as="targetPoint"/>
                    </mxGeometry>
                </mxCell>
                <mxCell id="m1c0zaDM8MKZKs5XDYi0-10" value="&lt;div&gt;HTTP/3&lt;/div&gt;" style="edgeLabel;html=1;align=center;verticalAlign=middle;resizable=0;points=[];" parent="m1c0zaDM8MKZKs5XDYi0-9" vertex="1" connectable="0">
                    <mxGeometry x="0.398" y="1" relative="1" as="geometry">
                        <mxPoint x="-16" y="-19" as="offset"/>
                    </mxGeometry>
                </mxCell>
                <mxCell id="m1c0zaDM8MKZKs5XDYi0-21" value="&lt;div&gt;Nginx Server&lt;/div&gt;" style="verticalAlign=top;align=left;spacingTop=8;spacingLeft=2;spacingRight=12;shape=cube;size=10;direction=south;fontStyle=4;html=1;whiteSpace=wrap;" parent="1" vertex="1">
                    <mxGeometry x="600" y="190" width="600" height="232" as="geometry"/>
                </mxCell>
                <mxCell id="m1c0zaDM8MKZKs5XDYi0-24" value="" style="endArrow=none;html=1;edgeStyle=orthogonalEdgeStyle;rounded=0;exitX=0.313;exitY=-0.011;exitDx=0;exitDy=0;exitPerimeter=0;entryX=0.382;entryY=0.998;entryDx=0;entryDy=0;entryPerimeter=0;" parent="1" source="m1c0zaDM8MKZKs5XDYi0-3" target="m1c0zaDM8MKZKs5XDYi0-21" edge="1">
                    <mxGeometry relative="1" as="geometry">
                        <mxPoint x="460" y="310" as="sourcePoint"/>
                        <mxPoint x="600" y="278" as="targetPoint"/>
                    </mxGeometry>
                </mxCell>
                <mxCell id="m1c0zaDM8MKZKs5XDYi0-25" value="&lt;div&gt;1&lt;/div&gt;" style="edgeLabel;resizable=0;html=1;align=left;verticalAlign=bottom;" parent="m1c0zaDM8MKZKs5XDYi0-24" connectable="0" vertex="1">
                    <mxGeometry x="-1" relative="1" as="geometry"/>
                </mxCell>
                <mxCell id="m1c0zaDM8MKZKs5XDYi0-26" value="&lt;div&gt;1..2&lt;/div&gt;" style="edgeLabel;resizable=0;html=1;align=right;verticalAlign=bottom;" parent="m1c0zaDM8MKZKs5XDYi0-24" connectable="0" vertex="1">
                    <mxGeometry x="1" relative="1" as="geometry"/>
                </mxCell>
                <mxCell id="m1c0zaDM8MKZKs5XDYi0-28" value="&lt;div&gt;TCP/IP&lt;/div&gt;" style="edgeLabel;html=1;align=center;verticalAlign=middle;resizable=0;points=[];" parent="m1c0zaDM8MKZKs5XDYi0-24" vertex="1" connectable="0">
                    <mxGeometry x="-0.2025" relative="1" as="geometry">
                        <mxPoint x="9" y="12" as="offset"/>
                    </mxGeometry>
                </mxCell>
                <mxCell id="m1c0zaDM8MKZKs5XDYi0-29" value="&lt;div&gt;«transactions»&lt;/div&gt;&lt;div&gt;&lt;b&gt;transaction_service&lt;/b&gt;&lt;/div&gt;" style="html=1;dropTarget=0;whiteSpace=wrap;" parent="1" vertex="1">
                    <mxGeometry x="860" y="271" width="140" height="70" as="geometry"/>
                </mxCell>
                <mxCell id="m1c0zaDM8MKZKs5XDYi0-30" value="" style="shape=module;jettyWidth=8;jettyHeight=4;" parent="m1c0zaDM8MKZKs5XDYi0-29" vertex="1">
                    <mxGeometry x="1" width="20" height="20" relative="1" as="geometry">
                        <mxPoint x="-27" y="7" as="offset"/>
                    </mxGeometry>
                </mxCell>
                <mxCell id="m1c0zaDM8MKZKs5XDYi0-32" value="" style="group" parent="1" vertex="1" connectable="0">
                    <mxGeometry x="840" y="-10" width="190" height="120" as="geometry"/>
                </mxCell>
                <mxCell id="m1c0zaDM8MKZKs5XDYi0-33" value="Transbank Server" style="verticalAlign=top;align=left;spacingTop=8;spacingLeft=2;spacingRight=12;shape=cube;size=10;direction=south;fontStyle=4;html=1;whiteSpace=wrap;" parent="m1c0zaDM8MKZKs5XDYi0-32" vertex="1">
                    <mxGeometry width="190" height="120" as="geometry"/>
                </mxCell>
                <mxCell id="m1c0zaDM8MKZKs5XDYi0-34" value="&lt;div&gt;«api»&lt;/div&gt;&lt;div&gt;&lt;b&gt;webpay_service&lt;/b&gt;&lt;/div&gt;" style="html=1;dropTarget=0;whiteSpace=wrap;" parent="m1c0zaDM8MKZKs5XDYi0-32" vertex="1">
                    <mxGeometry x="30" y="40" width="120" height="60" as="geometry"/>
                </mxCell>
                <mxCell id="m1c0zaDM8MKZKs5XDYi0-35" value="" style="shape=module;jettyWidth=8;jettyHeight=4;" parent="m1c0zaDM8MKZKs5XDYi0-34" vertex="1">
                    <mxGeometry x="1" width="20" height="20" relative="1" as="geometry">
                        <mxPoint x="-27" y="7" as="offset"/>
                    </mxGeometry>
                </mxCell>
                <mxCell id="m1c0zaDM8MKZKs5XDYi0-43" value="" style="group" parent="1" vertex="1" connectable="0">
                    <mxGeometry x="785" y="160" width="10" height="10" as="geometry"/>
                </mxCell>
                <mxCell id="m1c0zaDM8MKZKs5XDYi0-41" value="" style="ellipse;whiteSpace=wrap;html=1;align=center;aspect=fixed;fillColor=none;strokeColor=none;resizable=0;perimeter=centerPerimeter;rotatable=0;allowArrows=0;points=[];outlineConnect=1;" parent="m1c0zaDM8MKZKs5XDYi0-43" vertex="1">
                    <mxGeometry width="10" height="10" as="geometry"/>
                </mxCell>
                <mxCell id="m1c0zaDM8MKZKs5XDYi0-39" value="" style="rounded=0;orthogonalLoop=1;jettySize=auto;html=1;endArrow=halfCircle;endFill=0;endSize=6;strokeWidth=1;sketch=0;exitX=0.5;exitY=0;exitDx=0;exitDy=0;" parent="1" source="m1c0zaDM8MKZKs5XDYi0-29" edge="1">
                    <mxGeometry relative="1" as="geometry">
                        <mxPoint x="165" y="5" as="sourcePoint"/>
                        <mxPoint x="930" y="165" as="targetPoint"/>
                    </mxGeometry>
                </mxCell>
                <mxCell id="m1c0zaDM8MKZKs5XDYi0-42" value="&lt;div&gt;REST API&lt;/div&gt;" style="edgeLabel;html=1;align=center;verticalAlign=middle;resizable=0;points=[];" parent="m1c0zaDM8MKZKs5XDYi0-39" vertex="1" connectable="0">
                    <mxGeometry x="0.68" y="-2" relative="1" as="geometry">
                        <mxPoint x="42" y="-17" as="offset"/>
                    </mxGeometry>
                </mxCell>
                <mxCell id="m1c0zaDM8MKZKs5XDYi0-40" value="" style="rounded=0;orthogonalLoop=1;jettySize=auto;html=1;endArrow=oval;endFill=0;sketch=0;sourcePerimeterSpacing=0;targetPerimeterSpacing=0;endSize=10;exitX=0.5;exitY=1;exitDx=0;exitDy=0;" parent="1" source="m1c0zaDM8MKZKs5XDYi0-34" edge="1">
                    <mxGeometry relative="1" as="geometry">
                        <mxPoint x="125" y="5" as="sourcePoint"/>
                        <mxPoint x="930" y="165" as="targetPoint"/>
                    </mxGeometry>
                </mxCell>
                <mxCell id="m1c0zaDM8MKZKs5XDYi0-74" value="&lt;div&gt;HTTP/3&lt;/div&gt;" style="edgeLabel;html=1;align=center;verticalAlign=middle;resizable=0;points=[];" parent="m1c0zaDM8MKZKs5XDYi0-40" vertex="1" connectable="0">
                    <mxGeometry x="0.5968" relative="1" as="geometry">
                        <mxPoint x="-30" y="-20" as="offset"/>
                    </mxGeometry>
                </mxCell>
                <mxCell id="m1c0zaDM8MKZKs5XDYi0-57" value="&lt;div&gt;«auth»&lt;/div&gt;&lt;div&gt;&lt;b&gt;authentication_service&lt;/b&gt;&lt;/div&gt;" style="html=1;dropTarget=0;whiteSpace=wrap;" parent="1" vertex="1">
                    <mxGeometry x="650" y="322" width="140" height="70" as="geometry"/>
                </mxCell>
                <mxCell id="m1c0zaDM8MKZKs5XDYi0-58" value="" style="shape=module;jettyWidth=8;jettyHeight=4;" parent="m1c0zaDM8MKZKs5XDYi0-57" vertex="1">
                    <mxGeometry x="1" width="20" height="20" relative="1" as="geometry">
                        <mxPoint x="-27" y="7" as="offset"/>
                    </mxGeometry>
                </mxCell>
                <mxCell id="m1c0zaDM8MKZKs5XDYi0-67" value="" style="group" parent="1" vertex="1" connectable="0">
                    <mxGeometry x="770" y="500" width="318" height="120" as="geometry"/>
                </mxCell>
                <mxCell id="m1c0zaDM8MKZKs5XDYi0-68" value="&lt;div&gt;Firebase BaaS&lt;/div&gt;" style="verticalAlign=top;align=left;spacingTop=8;spacingLeft=2;spacingRight=12;shape=cube;size=10;direction=south;fontStyle=4;html=1;whiteSpace=wrap;" parent="m1c0zaDM8MKZKs5XDYi0-67" vertex="1">
                    <mxGeometry x="-170" width="488" height="120" as="geometry"/>
                </mxCell>
                <mxCell id="m1c0zaDM8MKZKs5XDYi0-69" value="&lt;div&gt;«database»&lt;/div&gt;&lt;div&gt;&lt;b&gt;firebase_firestore&lt;/b&gt;&lt;br&gt;&lt;/div&gt;" style="html=1;dropTarget=0;whiteSpace=wrap;" parent="m1c0zaDM8MKZKs5XDYi0-67" vertex="1">
                    <mxGeometry x="90.00052631578947" y="40" width="200.84210526315792" height="60" as="geometry"/>
                </mxCell>
                <mxCell id="m1c0zaDM8MKZKs5XDYi0-70" value="" style="shape=module;jettyWidth=8;jettyHeight=4;" parent="m1c0zaDM8MKZKs5XDYi0-69" vertex="1">
                    <mxGeometry x="1" width="20" height="20" relative="1" as="geometry">
                        <mxPoint x="-27" y="7" as="offset"/>
                    </mxGeometry>
                </mxCell>
                <mxCell id="m1c0zaDM8MKZKs5XDYi0-71" value="&lt;div&gt;«auth»&lt;/div&gt;&lt;div&gt;&lt;b&gt;firebase_authentication&lt;/b&gt;&lt;br&gt;&lt;/div&gt;" style="html=1;dropTarget=0;whiteSpace=wrap;" parent="m1c0zaDM8MKZKs5XDYi0-67" vertex="1">
                    <mxGeometry x="-149.99947368421056" y="40" width="200.84210526315792" height="60" as="geometry"/>
                </mxCell>
                <mxCell id="m1c0zaDM8MKZKs5XDYi0-72" value="" style="shape=module;jettyWidth=8;jettyHeight=4;" parent="m1c0zaDM8MKZKs5XDYi0-71" vertex="1">
                    <mxGeometry x="1" width="20" height="20" relative="1" as="geometry">
                        <mxPoint x="-27" y="7" as="offset"/>
                    </mxGeometry>
                </mxCell>
                <mxCell id="m1c0zaDM8MKZKs5XDYi0-64" value="" style="rounded=0;orthogonalLoop=1;jettySize=auto;html=1;endArrow=halfCircle;endFill=0;endSize=6;strokeWidth=1;sketch=0;" parent="1" source="m1c0zaDM8MKZKs5XDYi0-29" edge="1">
                    <mxGeometry relative="1" as="geometry">
                        <mxPoint x="929.5" y="440" as="sourcePoint"/>
                        <mxPoint x="930" y="450" as="targetPoint"/>
                    </mxGeometry>
                </mxCell>
                <mxCell id="m1c0zaDM8MKZKs5XDYi0-65" value="&lt;div&gt;REST API&lt;/div&gt;" style="edgeLabel;html=1;align=center;verticalAlign=middle;resizable=0;points=[];" parent="m1c0zaDM8MKZKs5XDYi0-64" vertex="1" connectable="0">
                    <mxGeometry x="0.68" y="-2" relative="1" as="geometry">
                        <mxPoint x="52" y="17" as="offset"/>
                    </mxGeometry>
                </mxCell>
                <mxCell id="m1c0zaDM8MKZKs5XDYi0-77" value="&lt;div&gt;HTTP/3&lt;/div&gt;" style="edgeLabel;html=1;align=center;verticalAlign=middle;resizable=0;points=[];" parent="m1c0zaDM8MKZKs5XDYi0-64" vertex="1" connectable="0">
                    <mxGeometry x="0.3999" y="1" relative="1" as="geometry">
                        <mxPoint x="-41" y="63" as="offset"/>
                    </mxGeometry>
                </mxCell>
                <mxCell id="m1c0zaDM8MKZKs5XDYi0-66" value="" style="rounded=0;orthogonalLoop=1;jettySize=auto;html=1;endArrow=oval;endFill=0;sketch=0;sourcePerimeterSpacing=0;targetPerimeterSpacing=0;endSize=10;exitX=0.349;exitY=0;exitDx=0;exitDy=0;exitPerimeter=0;" parent="1" source="m1c0zaDM8MKZKs5XDYi0-69" edge="1">
                    <mxGeometry relative="1" as="geometry">
                        <mxPoint x="929.5" y="580" as="sourcePoint"/>
                        <mxPoint x="930" y="450" as="targetPoint"/>
                    </mxGeometry>
                </mxCell>
                <mxCell id="m1c0zaDM8MKZKs5XDYi0-49" value="" style="rounded=0;orthogonalLoop=1;jettySize=auto;html=1;endArrow=halfCircle;endFill=0;endSize=6;strokeWidth=1;sketch=0;exitX=0.5;exitY=1;exitDx=0;exitDy=0;" parent="1" source="m1c0zaDM8MKZKs5XDYi0-57" edge="1">
                    <mxGeometry relative="1" as="geometry">
                        <mxPoint x="720" y="410" as="sourcePoint"/>
                        <mxPoint x="720" y="450" as="targetPoint"/>
                    </mxGeometry>
                </mxCell>
                <mxCell id="m1c0zaDM8MKZKs5XDYi0-50" value="&lt;div&gt;REST API&lt;/div&gt;" style="edgeLabel;html=1;align=center;verticalAlign=middle;resizable=0;points=[];" parent="m1c0zaDM8MKZKs5XDYi0-49" vertex="1" connectable="0">
                    <mxGeometry x="0.68" y="-2" relative="1" as="geometry">
                        <mxPoint x="38" y="9" as="offset"/>
                    </mxGeometry>
                </mxCell>
                <mxCell id="m1c0zaDM8MKZKs5XDYi0-78" value="&lt;div&gt;HTTP/3&lt;/div&gt;" style="edgeLabel;html=1;align=center;verticalAlign=middle;resizable=0;points=[];" parent="m1c0zaDM8MKZKs5XDYi0-49" vertex="1" connectable="0">
                    <mxGeometry x="0.3749" y="-1" relative="1" as="geometry">
                        <mxPoint x="-31" y="48" as="offset"/>
                    </mxGeometry>
                </mxCell>
                <mxCell id="m1c0zaDM8MKZKs5XDYi0-51" value="" style="rounded=0;orthogonalLoop=1;jettySize=auto;html=1;endArrow=oval;endFill=0;sketch=0;sourcePerimeterSpacing=0;targetPerimeterSpacing=0;endSize=10;" parent="1" source="m1c0zaDM8MKZKs5XDYi0-71" edge="1">
                    <mxGeometry relative="1" as="geometry">
                        <mxPoint x="720" y="550" as="sourcePoint"/>
                        <mxPoint x="720" y="450" as="targetPoint"/>
                    </mxGeometry>
                </mxCell>
                <mxCell id="2" value="&lt;div&gt;«products»&lt;/div&gt;&lt;div&gt;&lt;b&gt;product_service&lt;/b&gt;&lt;/div&gt;" style="html=1;dropTarget=0;whiteSpace=wrap;" vertex="1" parent="1">
                    <mxGeometry x="1020" y="270" width="140" height="70" as="geometry"/>
                </mxCell>
                <mxCell id="3" value="" style="shape=module;jettyWidth=8;jettyHeight=4;" vertex="1" parent="2">
                    <mxGeometry x="1" width="20" height="20" relative="1" as="geometry">
                        <mxPoint x="-27" y="7" as="offset"/>
                    </mxGeometry>
                </mxCell>
                <mxCell id="11" value="" style="rounded=0;orthogonalLoop=1;jettySize=auto;html=1;endArrow=halfCircle;endFill=0;endSize=6;strokeWidth=1;sketch=0;" edge="1" parent="1">
                    <mxGeometry relative="1" as="geometry">
                        <mxPoint x="1040" y="341" as="sourcePoint"/>
                        <mxPoint x="1040" y="450" as="targetPoint"/>
                    </mxGeometry>
                </mxCell>
                <mxCell id="12" value="&lt;div&gt;REST API&lt;/div&gt;" style="edgeLabel;html=1;align=center;verticalAlign=middle;resizable=0;points=[];" vertex="1" connectable="0" parent="11">
                    <mxGeometry x="0.68" y="-2" relative="1" as="geometry">
                        <mxPoint x="42" y="17" as="offset"/>
                    </mxGeometry>
                </mxCell>
                <mxCell id="13" value="&lt;div&gt;HTTP/3&lt;/div&gt;" style="edgeLabel;html=1;align=center;verticalAlign=middle;resizable=0;points=[];" vertex="1" connectable="0" parent="11">
                    <mxGeometry x="0.3999" y="1" relative="1" as="geometry">
                        <mxPoint x="29" y="-17" as="offset"/>
                    </mxGeometry>
                </mxCell>
                <mxCell id="14" value="" style="rounded=0;orthogonalLoop=1;jettySize=auto;html=1;endArrow=oval;endFill=0;sketch=0;sourcePerimeterSpacing=0;targetPerimeterSpacing=0;endSize=10;exitX=0.349;exitY=0;exitDx=0;exitDy=0;exitPerimeter=0;" edge="1" parent="1">
                    <mxGeometry relative="1" as="geometry">
                        <mxPoint x="1040.0944210526318" y="540" as="sourcePoint"/>
                        <mxPoint x="1040" y="450" as="targetPoint"/>
                    </mxGeometry>
                </mxCell>
            </root>
        </mxGraphModel>
    </diagram>
</mxfile>